# xmcd
#
# Track frame offsets:
#	150
#	12554
#	29070
#	41249
#	62932
#	79190
#	89833
#	101884
#	115975
#	129163
#	140936
#	153636
#
# Disc length: 2246 seconds
#
# Revision: 0
# Processed by: cddbd v1.5.2PL0 Copyright (c) Steve Scherf et al.
# Submitted via: dBpowerAMP V4.0
#
DISCID=b908c40c
DTITLE=Merle Haggard - Vintage Vaults - Classic Country Songs CD 3
DYEAR=2007
DGENRE=Country
TTITLE0=If We Make It Through December
TTITLE1=Daddy Frank (The Guitar Man)
TTITLE2=Everybody's Had The Blues
TTITLE3=Going Where The Lonely Go
TTITLE4=Ramblin' Fever
TTITLE5=Old Man From The Mountain
TTITLE6=Things Aren't Funny Anymore
TTITLE7=Natural High
TTITLE8=The Way I Am
TTITLE9=Turnin' Off A Memory
TTITLE10=The Emptiest Arms In The World
TTITLE11=A Friend In California
EXTD=
EXTT0=
EXTT1=
EXTT2=
EXTT3=
EXTT4=
EXTT5=
EXTT6=
EXTT7=
EXTT8=
EXTT9=
EXTT10=
EXTT11=
PLAYORDER=
